<svg width="277" height="42" viewBox="0 0 277 42" fill="none" xmlns="http://www.w3.org/2000/svg">
<g clip-path="url(#clip0_1427_1175)">
<path d="M35.519 35.7235H24.7091V33.1486H35.519C36.0284 33.1486 36.5169 32.9451 36.8771 32.5829C37.2373 32.2207 37.4396 31.7295 37.4396 31.2173V7.50619C37.4396 6.994 37.2373 6.50278 36.8771 6.14061C36.5169 5.77843 36.0284 5.57497 35.519 5.57497H12.8984C12.389 5.57497 11.9005 5.77843 11.5403 6.14061C11.1802 6.50278 10.9778 6.994 10.9778 7.50619V11.2903H8.41699V7.50619C8.41699 6.31107 8.88914 5.16491 9.72957 4.31983C10.57 3.47476 11.7099 3 12.8984 3H35.519C36.7076 3 37.8474 3.47476 38.6879 4.31983C39.5283 5.16491 40.0004 6.31107 40.0004 7.50619V31.2173C40.0004 32.4124 39.5283 33.5586 38.6879 34.4037C37.8474 35.2488 36.7076 35.7235 35.519 35.7235Z" fill="black"/>
<path d="M3.34653 42.0009C3.13294 42.0015 2.9226 41.9484 2.73466 41.8463C2.54672 41.7443 2.38715 41.5966 2.27049 41.4167C2.15383 41.2368 2.08378 41.0304 2.06672 40.8163C2.04966 40.6022 2.08613 40.3872 2.17282 40.191C2.18135 40.1716 3.00935 38.293 3.56953 36.6053C3.62501 36.4358 3.67623 36.2706 3.73705 36.1086C4.11264 35.0078 4.38366 34.2127 4.30577 32.9617C4.21187 31.4457 3.29424 29.2731 2.48011 27.9985L2.19629 27.5575C1.29894 26.1628 0.650196 25.1478 0.398382 24.2004C-0.607807 20.4034 0.444263 17.5323 1.50487 15.7931C3.59834 12.3599 7.29979 9.97051 10.934 9.70979C14.3484 9.4641 19.4701 10.7226 21.8901 12.4028C23.5503 13.5551 24.7774 15.4402 25.3237 16.704C25.9127 18.0656 26.3907 20.5847 26.3907 21.5085C26.382 21.9556 26.3345 22.4011 26.2488 22.84C26.1368 23.4912 26.1079 23.7616 26.2435 24.0202C26.4302 24.3785 26.8506 25.004 27.2198 25.5566C27.6957 26.2657 28.1075 26.8784 28.2996 27.299C29.0636 28.962 27.6594 30.0241 27.0522 30.478C26.9125 30.5853 26.793 30.6711 26.6895 30.7473L26.5091 30.8803C26.5006 30.9243 26.491 30.9704 26.4825 31.0155C26.0781 33.1173 25.5222 35.4401 24.516 36.7341C23.449 38.0966 21.9317 38.6073 19.7304 38.3434C17.1504 38.0344 15.3952 36.9755 15.3216 36.9304C15.0391 36.7494 14.8383 36.4643 14.7625 36.1362C14.6866 35.8082 14.7416 35.4633 14.9157 35.1755C15.0898 34.8877 15.3691 34.68 15.6937 34.5969C16.0183 34.5138 16.3624 34.5619 16.6521 34.7309C17.7034 35.2929 18.8505 35.6507 20.0335 35.7856C21.8314 36.0002 22.2688 35.4423 22.5025 35.1419C23.2676 34.1623 23.7957 31.4232 23.9686 30.5284C24.0018 30.2911 24.0576 30.0576 24.135 29.831C24.3559 29.2752 24.7198 29.0081 25.1796 28.6701C25.2757 28.6004 25.3866 28.5188 25.5158 28.4212C25.5947 28.3622 25.7366 28.2549 25.8519 28.1573C25.6683 27.8504 25.3472 27.3719 25.0975 26.9985C24.6707 26.3623 24.2289 25.7046 23.9771 25.2229C23.4244 24.1672 23.5909 23.1919 23.7242 22.4076C23.7844 22.1124 23.8201 21.8128 23.8309 21.5117C23.8309 21.0182 23.4426 18.8112 22.9773 17.733C22.669 17.0195 21.7407 15.4294 20.4368 14.525C18.5162 13.1924 13.9024 12.082 11.1186 12.2815C8.28144 12.4854 5.36531 14.393 3.6901 17.1418C2.89411 18.4507 2.10453 20.6223 2.88024 23.5374C3.02749 24.092 3.64315 25.0512 4.35592 26.1606L4.63761 26.6048C5.62139 28.1433 6.73748 30.7376 6.86659 32.7997C6.97329 34.5625 6.56249 35.7727 6.16343 36.9433C6.11008 37.0978 6.05673 37.2555 6.00231 37.4175C5.40265 39.2264 4.55331 41.1544 4.5181 41.2349C4.41762 41.463 4.2534 41.6568 4.04542 41.7928C3.83743 41.9288 3.59462 42.0011 3.34653 42.0009V42.0009Z" fill="black"/>
</g>
<path d="M64.3623 32L61.7256 25.2031H53.1416L50.5195 32H48L56.3789 10.4961H58.6201L66.9404 32H64.3623ZM60.9785 22.9912L58.4736 16.2383C58.415 16.0625 58.3174 15.7744 58.1807 15.374C58.0537 14.9736 57.9219 14.5586 57.7852 14.1289C57.6484 13.6992 57.5361 13.3525 57.4482 13.0889C57.3506 13.4893 57.2432 13.8896 57.126 14.29C57.0186 14.6807 56.9111 15.0469 56.8037 15.3887C56.6963 15.7207 56.6035 16.0039 56.5254 16.2383L53.9766 22.9912H60.9785ZM77.8428 15.6523C78.165 15.6523 78.502 15.6719 78.8535 15.7109C79.2051 15.7402 79.5176 15.7842 79.791 15.8428L79.4834 18.0986C79.2197 18.0303 78.9268 17.9766 78.6045 17.9375C78.2822 17.8984 77.9795 17.8789 77.6963 17.8789C77.0518 17.8789 76.4414 18.0107 75.8652 18.2744C75.2988 18.5283 74.8008 18.8994 74.3711 19.3877C73.9414 19.8662 73.6045 20.4473 73.3604 21.1309C73.1162 21.8047 72.9941 22.5566 72.9941 23.3867V32H70.5479V15.9453H72.5693L72.833 18.9043H72.9355C73.2676 18.3086 73.668 17.7666 74.1367 17.2783C74.6055 16.7803 75.1475 16.3848 75.7627 16.0918C76.3877 15.7988 77.0811 15.6523 77.8428 15.6523ZM89.0088 30.3008C89.4092 30.3008 89.8193 30.2666 90.2393 30.1982C90.6592 30.1299 91.001 30.0469 91.2646 29.9492V31.8389C90.9814 31.9658 90.5859 32.0732 90.0781 32.1611C89.5801 32.249 89.0918 32.293 88.6133 32.293C87.7637 32.293 86.9922 32.1465 86.2988 31.8535C85.6055 31.5508 85.0488 31.043 84.6289 30.3301C84.2188 29.6172 84.0137 28.6309 84.0137 27.3711V17.8496H81.7285V16.6631L84.0283 15.7109L84.9951 12.2246H86.46V15.9453H91.1621V17.8496H86.46V27.2979C86.46 28.3037 86.6895 29.0557 87.1484 29.5537C87.6172 30.0518 88.2373 30.3008 89.0088 30.3008ZM112.113 32H109.623V21.9072H98.373V32H95.8828V10.584H98.373V19.71H109.623V10.584H112.113V32ZM124.642 15.6816C126.556 15.6816 127.977 16.1113 128.904 16.9707C129.832 17.8301 130.296 19.2021 130.296 21.0869V32H128.523L128.055 29.627H127.938C127.488 30.2129 127.02 30.7061 126.531 31.1064C126.043 31.4971 125.477 31.7949 124.832 32C124.197 32.1953 123.416 32.293 122.488 32.293C121.512 32.293 120.643 32.1221 119.881 31.7803C119.129 31.4385 118.533 30.9209 118.094 30.2275C117.664 29.5342 117.449 28.6553 117.449 27.5908C117.449 25.9893 118.084 24.7588 119.354 23.8994C120.623 23.04 122.557 22.5713 125.154 22.4932L127.923 22.376V21.3945C127.923 20.0078 127.625 19.0361 127.029 18.4795C126.434 17.9229 125.594 17.6445 124.51 17.6445C123.67 17.6445 122.869 17.7666 122.107 18.0107C121.346 18.2549 120.623 18.543 119.939 18.875L119.192 17.0293C119.915 16.6582 120.745 16.3408 121.683 16.0771C122.62 15.8135 123.606 15.6816 124.642 15.6816ZM127.894 24.0898L125.447 24.1924C123.445 24.2705 122.034 24.5977 121.214 25.1738C120.394 25.75 119.983 26.5654 119.983 27.6201C119.983 28.5381 120.262 29.2168 120.818 29.6562C121.375 30.0957 122.112 30.3154 123.03 30.3154C124.456 30.3154 125.623 29.9199 126.531 29.1289C127.439 28.3379 127.894 27.1514 127.894 25.5693V24.0898ZM138.752 32H136.306V9.20703H138.752V32ZM147.34 32H144.894V9.20703H147.34V32ZM153.115 30.4766C153.115 29.793 153.281 29.3096 153.613 29.0264C153.945 28.7334 154.351 28.5869 154.829 28.5869C155.327 28.5869 155.747 28.7334 156.089 29.0264C156.431 29.3096 156.602 29.793 156.602 30.4766C156.602 31.1504 156.431 31.6436 156.089 31.9561C155.747 32.2588 155.327 32.4102 154.829 32.4102C154.351 32.4102 153.945 32.2588 153.613 31.9561C153.281 31.6436 153.115 31.1504 153.115 30.4766ZM174.813 26.3018C174.813 27.5713 174.496 28.6553 173.861 29.5537C173.236 30.4424 172.357 31.1211 171.225 31.5898C170.092 32.0586 168.759 32.293 167.226 32.293C166.415 32.293 165.648 32.2539 164.926 32.1758C164.203 32.0977 163.539 31.9854 162.934 31.8389C162.328 31.6924 161.796 31.5117 161.337 31.2969V28.9092C162.069 29.2119 162.963 29.4951 164.018 29.7588C165.072 30.0127 166.176 30.1396 167.328 30.1396C168.402 30.1396 169.311 29.998 170.053 29.7148C170.795 29.4219 171.356 29.0068 171.737 28.4697C172.128 27.9229 172.323 27.2686 172.323 26.5068C172.323 25.7744 172.162 25.1641 171.84 24.6758C171.518 24.1777 170.98 23.7285 170.229 23.3281C169.486 22.918 168.471 22.4834 167.182 22.0244C166.273 21.7021 165.473 21.3506 164.779 20.9697C164.086 20.5791 163.505 20.1396 163.036 19.6514C162.567 19.1631 162.211 18.5967 161.967 17.9521C161.732 17.3076 161.615 16.5703 161.615 15.7402C161.615 14.5977 161.903 13.6211 162.479 12.8105C163.065 11.9902 163.871 11.3652 164.896 10.9355C165.932 10.4961 167.118 10.2764 168.456 10.2764C169.599 10.2764 170.653 10.3838 171.62 10.5986C172.597 10.8135 173.49 11.1016 174.301 11.4629L173.524 13.6016C172.753 13.2793 171.933 13.0107 171.063 12.7959C170.204 12.5811 169.315 12.4736 168.397 12.4736C167.479 12.4736 166.703 12.6104 166.068 12.8838C165.443 13.1475 164.965 13.5234 164.633 14.0117C164.301 14.5 164.135 15.0811 164.135 15.7549C164.135 16.5068 164.291 17.1318 164.604 17.6299C164.926 18.1279 165.434 18.5723 166.127 18.9629C166.83 19.3438 167.758 19.7441 168.91 20.1641C170.17 20.623 171.239 21.1113 172.118 21.6289C172.997 22.1367 173.666 22.7617 174.125 23.5039C174.584 24.2363 174.813 25.1689 174.813 26.3018ZM177.293 15.9453H179.9L183.445 25.2617C183.65 25.8086 183.841 26.3359 184.017 26.8438C184.192 27.3418 184.349 27.8203 184.485 28.2793C184.622 28.7383 184.729 29.1826 184.808 29.6123H184.91C185.047 29.124 185.242 28.4844 185.496 27.6934C185.75 26.8926 186.023 26.0771 186.316 25.2471L189.671 15.9453H192.293L185.306 34.3584C184.935 35.3447 184.5 36.2041 184.002 36.9365C183.514 37.6689 182.918 38.2305 182.215 38.6211C181.512 39.0215 180.662 39.2217 179.666 39.2217C179.207 39.2217 178.802 39.1924 178.45 39.1338C178.099 39.085 177.796 39.0264 177.542 38.958V37.0098C177.757 37.0586 178.016 37.1025 178.318 37.1416C178.631 37.1807 178.953 37.2002 179.285 37.2002C179.891 37.2002 180.413 37.083 180.853 36.8486C181.302 36.624 181.688 36.292 182.01 35.8525C182.332 35.4131 182.61 34.8906 182.845 34.2852L183.724 32.0293L177.293 15.9453ZM203.459 15.6523C205.363 15.6523 206.804 16.1211 207.78 17.0586C208.757 17.9863 209.245 19.4805 209.245 21.541V32H206.843V21.7021C206.843 20.3643 206.535 19.3633 205.92 18.6992C205.314 18.0352 204.382 17.7031 203.122 17.7031C201.345 17.7031 200.095 18.2061 199.372 19.2119C198.649 20.2178 198.288 21.6777 198.288 23.5918V32H195.856V15.9453H197.819L198.186 18.2598H198.317C198.659 17.6934 199.094 17.2197 199.621 16.8389C200.148 16.4482 200.739 16.1553 201.394 15.96C202.048 15.7549 202.736 15.6523 203.459 15.6523ZM221.437 15.6523C222.804 15.6523 223.976 15.9551 224.952 16.5605C225.929 17.166 226.676 18.0156 227.193 19.1094C227.711 20.1934 227.97 21.4629 227.97 22.918V24.4268H216.881C216.91 26.3115 217.379 27.7471 218.287 28.7334C219.195 29.7197 220.475 30.2129 222.125 30.2129C223.141 30.2129 224.039 30.1201 224.82 29.9346C225.602 29.749 226.412 29.4756 227.252 29.1143V31.2529C226.441 31.6143 225.636 31.8779 224.835 32.0439C224.044 32.21 223.106 32.293 222.022 32.293C220.479 32.293 219.132 31.9805 217.979 31.3555C216.837 30.7207 215.948 29.793 215.313 28.5723C214.679 27.3516 214.361 25.8574 214.361 24.0898C214.361 22.3613 214.649 20.8672 215.226 19.6074C215.812 18.3379 216.632 17.3613 217.687 16.6777C218.751 15.9941 220.001 15.6523 221.437 15.6523ZM221.407 17.6445C220.108 17.6445 219.073 18.0693 218.302 18.9189C217.53 19.7686 217.071 20.9551 216.925 22.4785H225.421C225.411 21.5215 225.26 20.6816 224.967 19.959C224.684 19.2266 224.249 18.6602 223.663 18.2598C223.077 17.8496 222.325 17.6445 221.407 17.6445ZM240.396 15.6523C240.718 15.6523 241.055 15.6719 241.406 15.7109C241.758 15.7402 242.07 15.7842 242.344 15.8428L242.036 18.0986C241.772 18.0303 241.479 17.9766 241.157 17.9375C240.835 17.8984 240.532 17.8789 240.249 17.8789C239.604 17.8789 238.994 18.0107 238.418 18.2744C237.852 18.5283 237.354 18.8994 236.924 19.3877C236.494 19.8662 236.157 20.4473 235.913 21.1309C235.669 21.8047 235.547 22.5566 235.547 23.3867V32H233.101V15.9453H235.122L235.386 18.9043H235.488C235.82 18.3086 236.221 17.7666 236.689 17.2783C237.158 16.7803 237.7 16.3848 238.315 16.0918C238.94 15.7988 239.634 15.6523 240.396 15.6523ZM250.858 39.207C248.749 39.207 247.123 38.8115 245.98 38.0205C244.838 37.2393 244.267 36.1406 244.267 34.7246C244.267 33.7188 244.584 32.8594 245.219 32.1465C245.863 31.4336 246.752 30.96 247.885 30.7256C247.465 30.5303 247.104 30.2373 246.801 29.8467C246.508 29.4561 246.361 29.0068 246.361 28.499C246.361 27.9131 246.522 27.4004 246.845 26.9609C247.177 26.5117 247.68 26.082 248.354 25.6719C247.514 25.3301 246.83 24.7539 246.303 23.9434C245.785 23.123 245.526 22.1709 245.526 21.0869C245.526 19.9346 245.766 18.9531 246.244 18.1426C246.723 17.3223 247.416 16.6973 248.324 16.2676C249.232 15.8379 250.331 15.623 251.62 15.623C251.903 15.623 252.187 15.6377 252.47 15.667C252.763 15.6865 253.041 15.7207 253.305 15.7695C253.568 15.8086 253.798 15.8574 253.993 15.916H259.501V17.4834L256.542 17.8496C256.835 18.2305 257.079 18.6895 257.274 19.2266C257.47 19.7637 257.567 20.3594 257.567 21.0137C257.567 22.6152 257.025 23.8896 255.941 24.8369C254.857 25.7744 253.368 26.2432 251.474 26.2432C251.024 26.2432 250.565 26.2041 250.097 26.126C249.618 26.3896 249.252 26.6826 248.998 27.0049C248.754 27.3271 248.632 27.6982 248.632 28.1182C248.632 28.4307 248.725 28.6797 248.91 28.8652C249.105 29.0508 249.384 29.1875 249.745 29.2754C250.106 29.3535 250.541 29.3926 251.049 29.3926H253.876C255.624 29.3926 256.962 29.7588 257.89 30.4912C258.827 31.2236 259.296 32.293 259.296 33.6992C259.296 35.4766 258.573 36.8389 257.128 37.7861C255.683 38.7334 253.593 39.207 250.858 39.207ZM250.932 37.3027C252.26 37.3027 253.358 37.166 254.228 36.8926C255.106 36.6289 255.761 36.2432 256.19 35.7354C256.63 35.2373 256.85 34.6416 256.85 33.9482C256.85 33.3037 256.703 32.8154 256.41 32.4834C256.117 32.1611 255.688 31.9463 255.121 31.8389C254.555 31.7217 253.861 31.6631 253.041 31.6631H250.258C249.535 31.6631 248.905 31.7754 248.368 32C247.831 32.2246 247.416 32.5566 247.123 32.9961C246.84 33.4355 246.698 33.9824 246.698 34.6367C246.698 35.5059 247.064 36.165 247.797 36.6143C248.529 37.0732 249.574 37.3027 250.932 37.3027ZM251.562 24.4707C252.724 24.4707 253.598 24.1777 254.184 23.5918C254.77 23.0059 255.062 22.1514 255.062 21.0283C255.062 19.8271 254.765 18.9287 254.169 18.333C253.573 17.7275 252.694 17.4248 251.532 17.4248C250.419 17.4248 249.56 17.7373 248.954 18.3623C248.358 18.9775 248.061 19.8809 248.061 21.0723C248.061 22.166 248.363 23.0059 248.969 23.5918C249.574 24.1777 250.438 24.4707 251.562 24.4707ZM261.131 15.9453H263.738L267.283 25.2617C267.488 25.8086 267.679 26.3359 267.854 26.8438C268.03 27.3418 268.187 27.8203 268.323 28.2793C268.46 28.7383 268.567 29.1826 268.646 29.6123H268.748C268.885 29.124 269.08 28.4844 269.334 27.6934C269.588 26.8926 269.861 26.0771 270.154 25.2471L273.509 15.9453H276.131L269.144 34.3584C268.772 35.3447 268.338 36.2041 267.84 36.9365C267.352 37.6689 266.756 38.2305 266.053 38.6211C265.35 39.0215 264.5 39.2217 263.504 39.2217C263.045 39.2217 262.64 39.1924 262.288 39.1338C261.937 39.085 261.634 39.0264 261.38 38.958V37.0098C261.595 37.0586 261.854 37.1025 262.156 37.1416C262.469 37.1807 262.791 37.2002 263.123 37.2002C263.729 37.2002 264.251 37.083 264.69 36.8486C265.14 36.624 265.525 36.292 265.848 35.8525C266.17 35.4131 266.448 34.8906 266.683 34.2852L267.562 32.0293L261.131 15.9453Z" fill="black"/>
<defs>
<clipPath id="clip0_1427_1175">
<rect width="40" height="39" fill="white" transform="translate(0 3)"/>
</clipPath>
</defs>
</svg>
